<svg width="1200" height="700" viewBox="0 0 1200 700" fill="none" xmlns="http://www.w3.org/2000/svg">
  <defs>
    <linearGradient id="bg" x1="0" y1="0" x2="1200" y2="700" gradientUnits="userSpaceOnUse">
      <stop stop-color="#0A1326"/>
      <stop offset="1" stop-color="#121C36"/>
    </linearGradient>
    <linearGradient id="arena" x1="0" y1="0" x2="1" y2="1">
      <stop stop-color="#1A2746"/>
      <stop offset="1" stop-color="#0E1731"/>
    </linearGradient>
  </defs>
  <rect width="1200" height="700" fill="url(#bg)"/>
  <rect x="120" y="120" width="960" height="460" rx="34" fill="url(#arena)" stroke="#2C3F63"/>
  <rect x="180" y="180" width="840" height="320" rx="24" fill="#0F1832" stroke="#2B3E62"/>
  <rect x="225" y="230" width="290" height="220" rx="24" fill="#132646" stroke="#35507A"/>
  <rect x="250" y="258" width="240" height="166" rx="18" fill="#3B2F28"/>
  <rect x="268" y="276" width="204" height="130" rx="12" fill="#D9C3A3"/>
  <path d="M370 320L378 340H400L383 352L389 372L370 360L351 372L357 352L340 340H362L370 320Z" fill="#1F2937"/>
  <rect x="685" y="230" width="290" height="220" rx="24" fill="#132646" stroke="#35507A"/>
  <rect x="710" y="258" width="240" height="166" rx="18" fill="#2D3B57"/>
  <rect x="728" y="276" width="204" height="130" rx="12" fill="#1E2E4D"/>
  <circle cx="830" cy="340" r="38" fill="#38BDF8"/>
  <circle cx="915" cy="340" r="38" fill="#FBBF24"/>
  <rect x="535" y="256" width="130" height="168" rx="22" fill="#0B1328" stroke="#2E456E"/>
  <text x="600" y="352" text-anchor="middle" fill="#60A5FA" font-family="Arial, sans-serif" font-size="56" font-weight="700">VS</text>
  <rect x="220" y="150" width="120" height="14" rx="7" fill="#3E557F"/>
  <rect x="860" y="150" width="120" height="14" rx="7" fill="#3E557F"/>
</svg>
