<svg width="1200" height="700" viewBox="0 0 1200 700" fill="none" xmlns="http://www.w3.org/2000/svg">
  <defs>
    <linearGradient id="bg" x1="0" y1="0" x2="1200" y2="700" gradientUnits="userSpaceOnUse">
      <stop stop-color="#0A1428"/>
      <stop offset="1" stop-color="#111A30"/>
    </linearGradient>
    <linearGradient id="glass" x1="0" y1="0" x2="1" y2="1">
      <stop stop-color="#1E2B48" stop-opacity="0.95"/>
      <stop offset="1" stop-color="#0E1730" stop-opacity="0.92"/>
    </linearGradient>
    <linearGradient id="cta" x1="0" y1="0" x2="1" y2="0">
      <stop stop-color="#14B8FF"/>
      <stop offset="1" stop-color="#3B82F6"/>
    </linearGradient>
    <filter id="blur" x="-120" y="-120" width="1440" height="940">
      <feGaussianBlur stdDeviation="60"/>
    </filter>
  </defs>
  <rect width="1200" height="700" fill="url(#bg)"/>
  <circle cx="220" cy="120" r="140" fill="#0EA5E9" fill-opacity="0.25" filter="url(#blur)"/>
  <circle cx="950" cy="610" r="180" fill="#6366F1" fill-opacity="0.25" filter="url(#blur)"/>
  <g transform="translate(170 115)">
    <path d="M40 30H820C842 30 860 48 860 70V455C860 477 842 495 820 495H40C18 495 0 477 0 455V70C0 48 18 30 40 30Z" fill="#0A1122" fill-opacity="0.7"/>
    <path d="M60 0H840C862 0 880 18 880 40V425C880 447 862 465 840 465H60C38 465 20 447 20 425V40C20 18 38 0 60 0Z" fill="url(#glass)" stroke="#263451"/>
    <rect x="54" y="54" width="792" height="48" rx="14" fill="#1B2A46"/>
    <circle cx="84" cy="78" r="8" fill="#38BDF8"/>
    <circle cx="112" cy="78" r="8" fill="#60A5FA"/>
    <rect x="140" y="70" width="220" height="16" rx="8" fill="#4B5D82"/>
    <rect x="90" y="148" width="360" height="28" rx="10" fill="#273858"/>
    <rect x="90" y="194" width="550" height="64" rx="16" fill="#121D36" stroke="#2A3A5B"/>
    <rect x="110" y="220" width="180" height="12" rx="6" fill="#3B4E73"/>
    <rect x="90" y="286" width="420" height="22" rx="10" fill="#273858"/>
    <rect x="90" y="326" width="550" height="64" rx="16" fill="#121D36" stroke="#2A3A5B"/>
    <rect x="110" y="352" width="210" height="12" rx="6" fill="#3B4E73"/>
    <rect x="90" y="420" width="260" height="56" rx="16" fill="url(#cta)"/>
    <rect x="390" y="420" width="250" height="56" rx="16" fill="#1B2A46"/>
    <rect x="760" y="148" width="70" height="70" rx="20" fill="#10203A" stroke="#2E4566"/>
    <path d="M795 174C803 174 809 168 809 160C809 152 803 146 795 146C787 146 781 152 781 160C781 168 787 174 795 174Z" fill="#38BDF8"/>
    <path d="M770 258H830V430H770V258Z" fill="#0E1730" stroke="#2E4566"/>
  </g>
</svg>
